<svg xmlns="http://www.w3.org/2000/svg" 
     width="400" height="300">

    <line x1="60" y1="40" x2="70" y2="80"
          stroke="black" stroke-width="5" />
    <line x1="30" y1="60" x2="58" y2="88"
          stroke="black" stroke-width="5" />
    <line x1="10" y1="90" x2="50" y2="100"
          stroke="black" stroke-width="5" />

    <rect x="125" y="70" width="40" height="50"
          stroke="black" stroke-width="2"
          fill="red"
          rx="10" ry="10" />
    <rect x="110" y="90" width="70" height="50"
          stroke="black" stroke-width="2"
          fill="gray"
          rx="10" ry="10" />
    <rect x="70" y="100" width="150" height="130"
          stroke="black" stroke-width="2"
          fill="blue"
          rx="30" ry="30" />

    <rect x="140" y="160" width="5" height="20"
          stroke="black" stroke-width="2"
          fill="cyan" />
    <rect x="145" y="160" width="5" height="20"
          stroke="black" stroke-width="2"
          fill="gray" />

    <rect x="110" y="190" width="70" height="10"
          stroke="black" stroke-width="2"
          fill="white" />
    <rect x="110" y="200" width="70" height="10"
          stroke="black" stroke-width="2"
          fill="white" />

    <circle cx="110" cy="140" r="25"
            stroke="black" stroke-width="2"
            fill="yellow" />
    <circle cx="110" cy="140" r="20"
            stroke="black" stroke-width="2"
            fill="white" />
    <circle cx="110" cy="140" r="5"
            fill="black" />

    <circle cx="180" cy="140" r="25"
            stroke="black" stroke-width="2"
            fill="yellow" />
    <circle cx="180" cy="140" r="20"
            stroke="black" stroke-width="2"
            fill="white" />
    <circle cx="180" cy="140" r="5"
            fill="black" />

    <path d="M230,150
             l20,-40
             l0,-40
             q0,-20 20,-20
             l80,0
             q20,0 20,20
             l0,40
             q0,20 -20,20
             l-90,0
             z"
          stroke="black" stroke-width="4"
          fill="white" />

    <text x="265" y="100"
          font-family="monospace" font-size="30">Hello!</text>

</svg>
