<svg xmlns="http://www.w3.org/2000/svg" viewBox="0 0 1000 1000">
  <g transform="matrix(0.863407, 0, 0, 0.862588, 68.273186, 69.137413)">
    <path style="fill:#e22929; stroke:none;" d="M 2 1 L 2 998 L 998 998 L 998.054 932 L 998.054 772 L 998.054 246 L 998.054 63 L 998.054 18 L 997.397 2.028 L 979 1 L 930 1 L 740 1 L 2 1 Z"></path>
    <path style="fill:#ffffff; stroke:none;" d="M 948 274 C 921.789 307.051 897.592 341.527 870.565 374 C 816.5 438.958 757.019 498.767 691 551.6 C 667.445 570.451 643.268 588.63 618 605.139 C 613.338 608.185 598.699 621.396 593.185 618.978 C 588.127 616.76 584.415 606.605 581.861 602 C 572.012 584.243 564.946 565.255 558.67 546 C 547.706 512.364 541.96 476.816 536.081 442 C 529.886 405.308 523.553 369.508 500.625 339 C 481.409 313.431 444.914 286.101 411 291.439 C 387.31 295.168 369.435 313.124 349 324 C 354.029 334.292 370.8 341.845 380 348.421 C 400.499 363.076 418.887 379.538 425.102 405 C 431.787 432.387 425.935 465.34 423.169 493 C 418.441 540.286 412 587.429 412 635 C 412 654.543 411.449 675.891 416 695 C 372.145 703.505 326.726 708.919 282 706.961 C 209.197 703.772 139.087 686.48 70 664 C 74.597 673.858 85.988 682.012 94 689.166 C 111.712 704.981 129.678 720.014 149 733.86 C 217.707 783.092 298.656 816.388 381 834.576 C 406.733 840.259 432.842 844.713 459 847.845 C 471.183 849.304 486.438 848.057 498 852.018 C 508.313 855.551 518.15 865.317 527 871.576 C 542.444 882.497 558.971 892.503 576 900.742 C 619.823 921.943 670.801 921.463 718 917.075 C 772.328 912.023 823.958 889.827 873 867.309 C 884.723 861.926 896.46 856.523 908 850.753 C 912.695 848.406 919.061 846.487 922 842 C 863.385 833.376 810.69 801.353 757 779 C 790.728 745.272 821.3 709.578 846.575 669 C 897.32 587.531 922.876 492.299 936.13 398 C 940.458 367.21 945.528 336.07 947.039 305 C 947.486 295.804 951.64 282.675 948 274 Z"></path>
  </g>
  <rect style="stroke: rgb(0, 0, 0); fill: none; stroke-width: 70px;" width="920" height="920" y="40" x="40"></rect>
</svg>
