<svg xmlns="http://www.w3.org/2000/svg"
     xmlns:xlink="http://www.w3.org/1999/xlink"
     version="1.1"
     baseProfile="full"
     width="400" height="240"
     viewBox="0 0 200 120">

<!--

This example shows the use of multiple filters to achieve a kind of
3D effect on the shape.

-->

	<defs>
		<filter id="MyFilter" >
			<feGaussianBlur in="SourceAlpha" stdDeviation="4" result="blur"/>
	
			<feOffset in="blur" dx="4" dy="4" result="offsetBlurredAlpha"/>

			<feSpecularLighting in="blur" surfaceScale="5" specularConstant="0.9" specularExponent="20" lightColor="white" result="specularOut">
				<feDistantLight azimuth="135" elevation="30"/>
			</feSpecularLighting>

			<feComposite in="specularOut" in2="SourceAlpha" operator="in" result="specularOut"/>
	
			<feComposite in="SourceGraphic" in2="specularOut" operator="arithmetic" k1="0" k2="1" k3="1" k4="0" result="litPaint"/>

			<feMerge>
				<feMergeNode in="offsetBlurredAlpha"/>
				<feMergeNode in="litPaint"/>
			</feMerge>

		</filter>


	</defs>

	<path d="M200.125 120.125h-200v-120h200v120z" style="fill:#CCCCCC;"/>

	<g id="image" style="filter:url(#MyFilter)">
		<path style="fill:#D90000" d="M162.551 60.373c0-12.317-14.518-22.301-32.426-22.301c-2.047 0-4.047 0.136-5.986 0.385l6.293-7.856l-17.168 7.967l2.861-10.392l-11.457 11.156l-4.543-18.582l-4.543 18.582L84.124 28.176l2.861 10.392l-17.167-7.967l6.292 7.856c-1.941-0.249-3.94-0.385-5.986-0.385c-17.908 0-32.426 9.983-32.426 22.301c0 12.314 14.518 22.301 32.426 22.301c1.893 0 3.744-0.119 5.548-0.333l-5.854 7.312l17.167-7.969l-2.861 10.393L95.582 80.92l4.543 18.58l4.543-18.58l11.457 11.156l-2.861-10.393l17.168 7.969l-5.855-7.312c1.805 0.214 3.656 0.333 5.549 0.333c17.908 0 32.426-9.986 32.426-22.301z"/>
		<path style="fill:#D90000" d="M182.625 60.432c0-15.249-19.188-27.61-42.854-27.61c-2.705 0-5.346 0.169-7.91 0.478l8.316-9.729l-22.688 9.865l3.781-12.868l-15.143 13.813l-6.004-23.006L94.12 34.381L78.978 20.567l3.782 12.868L60.073 23.57l8.316 9.729c-2.565-0.309-5.207-0.478-7.911-0.478c-23.667 0-42.854 12.361-42.854 27.61s19.186 27.61 42.854 27.61c2.501 0 4.948-0.146 7.332-0.411l-7.737 9.051l22.687-9.865l-3.782 12.868L94.12 85.871l6.004 23.004l6.004-23.004l15.143 13.813l-3.781-12.868l22.688 9.865l-7.738-9.051c2.383 0.265 4.83 0.411 7.332 0.411c23.666 0 42.854-12.361 42.854-27.61zM 128.658 84.588l6.832 8.051l-20.033-8.774l3.34 11.445l-13.371-12.286l-5.301 20.461l-5.302-20.461L81.453 95.31l3.338-11.445l-20.033 8.774l6.832-8.051c-2.104 0.236-4.265 0.366-6.474 0.366c-20.897 0-37.838-10.995-37.838-24.557c0-13.563 16.941-24.558 37.838-24.558c2.388 0 4.721 0.15 6.986 0.425l-7.343-8.651l20.033 8.773l-3.338-11.444l13.37 12.285l5.302-20.461 l5.301 20.461l13.371-12.285l-3.34 11.444l20.033-8.773l-7.344 8.651c2.266-0.274 4.598-0.425 6.986-0.425c20.898 0 37.838 10.995 37.838 24.558c0 13.562-16.939 24.557-37.838 24.557c-2.209 0-4.369-0.13-6.475-0.366z"/>
		<g>
			<text x="52.65" y="75.673" 
style="font-family:Arial;fill:white;font-size:45px;">SVG</text>
		</g>
	</g>
</svg>
